<svg width="35" height="41" viewBox="0 0 35 41" fill="none" xmlns="http://www.w3.org/2000/svg">
<path d="M30.3711 35.3369C29.1667 37.0622 27.4821 38.3561 25.3174 39.2188C23.1689 40.0651 20.6624 40.4883 17.7979 40.4883C14.9007 40.4883 12.3291 39.8128 10.083 38.4619C7.83691 37.0947 6.09538 35.1579 4.8584 32.6514C3.6377 30.1449 3.01107 27.2396 2.97852 23.9355V20.835C2.97852 15.4801 4.22363 11.3298 6.71387 8.38379C9.22038 5.43783 12.736 3.96484 17.2607 3.96484C20.9717 3.96484 23.9583 4.91699 26.2207 6.82129C28.4831 8.70931 29.8665 11.3949 30.3711 14.8779H25.6836C24.8047 10.1742 22.0052 7.82227 17.2852 7.82227C14.1439 7.82227 11.7594 8.92904 10.1318 11.1426C8.52051 13.3398 7.70671 16.5299 7.69043 20.7129V23.6182C7.69043 27.6058 8.60189 30.7796 10.4248 33.1396C12.2477 35.4834 14.7135 36.6553 17.8223 36.6553C19.5801 36.6553 21.1182 36.46 22.4365 36.0693C23.7549 35.6787 24.8454 35.0195 25.708 34.0918V26.1084H17.4805V22.2998H30.3711V35.3369Z" fill="black"/>
<path d="M31.1562 33.5234C30 35.1797 28.3828 36.4219 26.3047 37.25C24.2422 38.0625 21.8359 38.4688 19.0859 38.4688C16.3047 38.4688 13.8359 37.8203 11.6797 36.5234C9.52344 35.2109 7.85156 33.3516 6.66406 30.9453C5.49219 28.5391 4.89062 25.75 4.85938 22.5781V19.6016C4.85938 14.4609 6.05469 10.4766 8.44531 7.64844C10.8516 4.82031 14.2266 3.40625 18.5703 3.40625C22.1328 3.40625 25 4.32031 27.1719 6.14844C29.3438 7.96094 30.6719 10.5391 31.1562 13.8828H26.6562C25.8125 9.36719 23.125 7.10938 18.5938 7.10938C15.5781 7.10938 13.2891 8.17187 11.7266 10.2969C10.1797 12.4062 9.39844 15.4688 9.38281 19.4844V22.2734C9.38281 26.1016 10.2578 29.1484 12.0078 31.4141C13.7578 33.6641 16.125 34.7891 19.1094 34.7891C20.7969 34.7891 22.2734 34.6016 23.5391 34.2266C24.8047 33.8516 25.8516 33.2188 26.6797 32.3281V24.6641H18.7812V21.0078H31.1562V33.5234Z" fill="white"/>
</svg>
